#!OML:ASF H:\Not Pregnant\Project 1\Capture day 1\Session 1\non-pregnant.ASF
:FULLY-SPECIFIED
:DEGREES
1663
root 16.4722 16.2504 5.16896 732.985 7.23445 361.611
lowerback -1.15236 3.81617 -2.63961
upperback -9.08603 4.86565 -3.13241
thorax -8.86605 2.48262 -2.16617
lowerneck 23.4518 -10.1993 -32.1151
upperneck -2.77558 -22.0423 39.6196
head 4.30702 -13.5089 19.9736
rclavicle 1.25731e-014 -1.51076e-014
rhumerus -33.3675 -7.99129 -83.8921
rradius 29.0554
rwrist 19.6635
rhand -10.0842 -1.29231
rfingers 7.12502
rthumb 15.9026 -30.6594
lclavicle 1.25731e-014 -1.51076e-014
lhumerus -38.9897 -12.9523 81.1502
lradius 33.397
lwrist 39.153
lhand -18.442 -10.5548
lfingers 7.12502
lthumb 7.84374 19.2797
rfemur -27.8902 13.3655 7.10672
rtibia 55.8075
rfoot -13.7377 -0.984033
rtoes -12.2684
lfemur -17.1518 0.748348 -22.1754
ltibia 30.3862
lfoot -19.8383 -0.486888
ltoes -32.3835
1664
root 16.5101 16.2369 5.1727 732.814 6.00577 361.547
lowerback -1.01738 3.89781 -2.83126
upperback -9.00358 4.95723 -3.16696
thorax -8.86854 2.53792 -2.10943
lowerneck 23.3327 -10.1599 -32.0692
upperneck -2.63758 -21.9803 39.5991
head 4.32838 -13.4687 19.9617
rclavicle -6.29153e-014 2.14687e-014
rhumerus -33.2756 -7.92895 -84.218
rradius 29.0536
rwrist 19.8368
rhand -10.0315 -1.22576
rfingers 7.12502
rthumb 15.9533 -30.5888
lclavicle -6.29153e-014 2.14687e-014
lhumerus -38.7399 -12.6947 80.6171
lradius 33.6645
lwrist 39.3514
lhand -18.556 -10.7081
lfingers 7.12502
lthumb 7.73371 19.1305
rfemur -28.5371 12.5494 7.65646
rtibia 56.1949
rfoot -14.506 -0.757793
rtoes -13.0847
lfemur -16.8667 0.748614 -22.2741
ltibia 30.5099
lfoot -19.9447 -0.18698
ltoes -32.4773
1665
root 16.5469 16.2228 5.17737 732.659 4.83431 361.453
lowerback -0.912704 3.96181 -2.97963
upperback -8.92358 5.02874 -3.19049
thorax -8.85336 2.58075 -2.06121
lowerneck 23.1785 -10.1094 -32.0517
upperneck -2.45846 -21.9124 39.5851
head 4.37022 -13.4232 19.9585
rclavicle 4.52235e-015 1.43125e-014
rhumerus -33.1955 -7.8688 -84.5274
rradius 29.0216
rwrist 20.0677
rhand -9.96761 -1.07283
rfingers 7.12502
rthumb 16.0148 -30.4309
lclavicle 4.52235e-015 1.43125e-014
lhumerus -38.4847 -12.4004 80.0817
lradius 33.8902
lwrist 39.5132
lhand -18.6696 -10.8646
lfingers 7.12502
lthumb 7.62403 18.9779
rfemur -29.1638 11.7393 8.29215
rtibia 56.5095
rfoot -15.27 -0.447967
rtoes -13.8081
lfemur -16.6396 0.819078 -22.3638
ltibia 30.7005
lfoot -20.0556 0.17797
ltoes -32.5039
1666
root 16.583 16.2082 5.18309 732.524 3.72074 361.331
lowerback -0.835328 4.01085 -3.08561
upperback -8.84673 5.08373 -3.2058
thorax -8.82259 2.61284 -2.02431
lowerneck 22.9884 -10.0565 -32.0442
upperneck -2.24583 -21.8425 39.5697
head 4.42811 -13.3735 19.9542
rclavicle 1.16289e-014 2.94201e-014
rhumerus -33.1285 -7.81837 -84.8199
rradius 28.9713
rwrist 20.3415
rhand -9.89306 -0.895405
rfingers 7.12502
rthumb 16.0866 -30.2477
lclavicle 1.16289e-014 2.94201e-014
lhumerus -38.2272 -12.0605 79.5425
lradius 34.0819
lwrist 39.6357
lhand -18.7824 -11.0322
lfingers 7.12502
lthumb 7.51517 18.8143
rfemur -29.7724 10.9363 9.00579
rtibia 56.7535
rfoot -16.0159 -0.0801856
rtoes -14.4386
lfemur -16.4698 0.945797 -22.4452
ltibia 30.95
lfoot -20.1679 0.610555
ltoes -32.4963
1667
root 16.6182 16.1933 5.18986 732.419 2.66847 361.189
lowerback -0.792917 4.04486 -3.15802
upperback -8.77512 5.12191 -3.21694
thorax -8.77433 2.63464 -1.99748
lowerneck 22.7597 -10.008 -32.0352
upperneck -1.99949 -21.7756 39.5461
head 4.50175 -13.3207 19.9407
rclavicle -2.59414e-014 0
rhumerus -33.0799 -7.78888 -85.0932
rradius 28.9107
rwrist 20.6462
rhand -9.80098 -0.707487
rfingers 7.12502
rthumb 16.1753 -30.0526
lclavicle -2.59414e-014 0
lhumerus -37.9692 -11.6885 79.0034
lradius 34.2414
lwrist 39.7314
lhand -18.8936 -11.2131
lfingers 7.12502
lthumb 7.40787 18.6372
rfemur -30.3737 10.1381 9.78621
rtibia 56.932
rfoot -16.7295 0.320307
rtoes -15.0003
lfemur -16.3576 1.11897 -22.5197
ltibia 31.2431
lfoot -20.2806 1.10161
ltoes -32.5
1668
root 16.6525 16.1783 5.19793 732.348 1.67027 361.034
lowerback -0.78574 4.06579 -3.20769
upperback -8.71481 5.14524 -3.22588
thorax -8.71593 2.64783 -1.9774
lowerneck 22.5101 -9.9572 -32.0264
upperneck -1.7264 -21.7055 39.518
head 4.58463 -13.2641 19.9248
rclavicle 1.42131e-014 -2.94201e-014
rhumerus -33.0648 -7.78107 -85.3423
rradius 28.8429
rwrist 20.9781
rhand -9.68846 -0.52036
rfingers 7.12502
rthumb 16.2836 -29.8566
lclavicle 1.42131e-014 -2.94201e-014
lhumerus -37.7273 -11.2897 78.4708
lradius 34.374
lwrist 39.8047
lhand -19.0075 -11.4101
lfingers 7.12502
lthumb 7.29793 18.4441
rfemur -30.9741 9.34682 10.6171
rtibia 57.0494
rfoot -17.394 0.731063
rtoes -15.5089
lfemur -16.2953 1.32923 -22.5944
ltibia 31.5619
lfoot -20.3928 1.64473
ltoes -32.5181
1669
root 16.6857 16.1633 5.2072 732.313 0.732354 360.879
lowerback -0.810552 4.07036 -3.24973
upperback -8.66556 5.14849 -3.23354
thorax -8.65042 2.65089 -1.95671
lowerneck 22.2412 -9.90675 -32.0124
upperneck -1.43396 -21.6327 39.4811
head 4.67304 -13.2033 19.9024
rclavicle 5.70512e-014 -2.14687e-014
rhumerus -33.0832 -7.79119 -85.5659
rradius 28.7729
rwrist 21.3201
rhand -9.56192 -0.33731
rfingers 7.12502
rthumb 16.4055 -29.6636
lclavicle 5.70512e-014 -2.14687e-014
lhumerus -37.5025 -10.8631 77.9498
lradius 34.4828
lwrist 39.8528
lhand -19.139 -11.6029
lfingers 7.12502
lthumb 7.17096 18.2556
rfemur -31.5758 8.55274 11.4831
rtibia 57.1108
rfoot -18.0073 1.1364
rtoes -15.9641
lfemur -16.2752 1.56125 -22.6765
ltibia 31.8868
lfoot -20.4975 2.22067
ltoes -32.5531
1670
root 16.7178 16.1489 5.21777 732.311 -0.137043 360.728
lowerback -0.85681 4.05945 -3.28701
upperback -8.63389 5.13181 -3.24279
thorax -8.5912 2.64392 -1.93833
lowerneck 21.9776 -9.85629 -31.988
upperneck -1.13151 -21.5595 39.4344
head 4.76007 -13.1417 19.874
rclavicle -2.51463e-014 9.54166e-015
rhumerus -33.1507 -7.82393 -85.7617
rradius 28.7118
rwrist 21.6434
rhand -9.37886 -0.215753
rfingers 7.12502
rthumb 16.5817 -29.5273
lclavicle -2.51463e-014 9.54166e-015
lhumerus -37.2936 -10.4175 77.4421
lradius 34.5422
lwrist 39.87
lhand -19.2739 -11.824
lfingers 7.12502
lthumb 7.04078 18.0389
rfemur -32.1739 7.75063 12.3779
rtibia 57.1172
rfoot -18.5754 1.51894
rtoes -16.3914
lfemur -16.2863 1.80111 -22.7641
ltibia 32.2009
lfoot -20.5972 2.80557
ltoes -32.5785
1671
root 16.749 16.1349 5.22984 732.331 -0.94953 360.586
lowerback -0.922807 4.03493 -3.32887
upperback -8.61141 5.09762 -3.25118
thorax -8.53112 2.62884 -1.91434
lowerneck 21.7139 -9.806 -31.9631
upperneck -0.824369 -21.4868 39.3821
head 4.84796 -13.0798 19.843
rclavicle 3.78685e-014 -2.70347e-014
rhumerus -33.2683 -7.87421 -85.924
rradius 28.6617
rwrist 21.9555
rhand -9.17806 -0.109619
rfingers 7.12502
rthumb 16.775 -29.4049
lclavicle 3.78685e-014 -2.70347e-014
lhumerus -37.1002 -9.95185 76.9547
lradius 34.5719
lwrist 39.866
lhand -19.4276 -12.0295
lfingers 7.12502
lthumb 6.89239 17.8383
rfemur -32.7628 6.949 13.2879
rtibia 57.0706
rfoot -19.0986 1.87236
rtoes -16.7675
lfemur -16.31 2.04504 -22.8628
ltibia 32.4903
lfoot -20.6939 3.38701
ltoes -32.5751
1672
root 16.7785 16.1219 5.24342 732.368 -1.69804 360.452
lowerback -0.992599 3.99706 -3.37977
upperback -8.60379 5.04522 -3.25718
thorax -8.48632 2.60559 -1.88255
lowerneck 21.4701 -9.75553 -31.9344
upperneck -0.518767 -21.4169 39.3211
head 4.93121 -13.0204 19.8082
rclavicle -5.28767e-014 1.43125e-014
rhumerus -33.4434 -7.94693 -86.0503
rradius 28.6196
rwrist 22.2338
rhand -8.95261 -0.0299078
rfingers 7.12502
rthumb 16.9921 -29.3067
lclavicle -5.28767e-014 1.43125e-014
lhumerus -36.938 -9.47586 76.4915
lradius 34.5792
lwrist 39.8362
lhand -19.5973 -12.2189
lfingers 7.12502
lthumb 6.7286 17.6542
rfemur -33.3333 6.15609 14.2162
rtibia 56.9681
rfoot -19.5765 2.18571
rtoes -17.0784
lfemur -16.3378 2.28403 -22.9617
ltibia 32.747
lfoot -20.7891 3.93925
ltoes -32.5141
1673
root 16.8067 16.1099 5.25862 732.415 -2.37874 360.325
lowerback -1.06804 3.94491 -3.43553
upperback -8.60425 4.97393 -3.25946
thorax -8.44785 2.57358 -1.84319
lowerneck 21.2423 -9.70696 -31.9025
upperneck -0.217282 -21.3506 39.2475
head 5.00954 -12.963 19.7666
rclavicle -2.26615e-014 -1.90833e-014
rhumerus -33.6711 -8.04247 -86.1352
rradius 28.5812
rwrist 22.4696
rhand -8.71476 0.0446159
rfingers 7.12502
rthumb 17.221 -29.2123
lclavicle -2.26615e-014 -1.90833e-014
lhumerus -36.8005 -8.99585 76.0581
lradius 34.5667
lwrist 39.8
lhand -19.7698 -12.3836
lfingers 7.12502
lthumb 6.56206 17.4947
rfemur -33.8739 5.36893 15.1542
rtibia 56.8068
rfoot -20.0177 2.45341
rtoes -17.3658
lfemur -16.3594 2.51445 -23.0609
ltibia 32.9655
lfoot -20.8815 4.45136
ltoes -32.4256
1674
root 16.8336 16.0993 5.27536 732.469 -2.99568 360.199
lowerback -1.14275 3.88133 -3.4911
upperback -8.61053 4.88767 -3.25558
thorax -8.41659 2.53445 -1.79711
lowerneck 21.0317 -9.66311 -31.8657
upperneck 0.0698745 -21.2893 39.1623
head 5.08036 -12.9087 19.717
rclavicle 6.95746e-016 2.22639e-014
rhumerus -33.9439 -8.16523 -86.1749
rradius 28.5382
rwrist 22.6579
rhand -8.48617 0.135457
rfingers 7.12502
rthumb 17.441 -29.1021
lclavicle 6.95746e-016 2.22639e-014
lhumerus -36.6794 -8.51259 75.657
lradius 34.5335
lwrist 39.7629
lhand -19.9462 -12.5112
lfingers 7.12502
lthumb 6.39176 17.3724
rfemur -34.3808 4.60731 16.1009
rtibia 56.5818
rfoot -20.4115 2.68189
rtoes -17.6069
lfemur -16.3703 2.73434 -23.1507
ltibia 33.1431
lfoot -20.9681 4.91743
ltoes -32.3045
1675
root 16.859 16.0902 5.29325 732.53 -3.53857 360.074
lowerback -1.21008 3.80382 -3.54624
upperback -8.62492 4.78271 -3.24472
thorax -8.39892 2.4864 -1.74409
lowerneck 20.8396 -9.62457 -31.8224
upperneck 0.343114 -21.2334 39.0615
head 5.14273 -12.8573 19.6569
rclavicle -1.21259e-014 -3.97569e-015
rhumerus -34.2581 -8.31948 -86.1675
rradius 28.499
rwrist 22.7633
rhand -8.21196 0.179808
rfingers 7.12502
rthumb 17.7049 -29.0342
lclavicle -1.21259e-014 -3.97569e-015
lhumerus -36.5697 -8.03303 75.2928
lradius 34.4711
lwrist 39.7338
lhand -20.1215 -12.6037
lfingers 7.12502
lthumb 6.22251 17.2849
rfemur -34.8539 3.87052 17.0496
rtibia 56.2901
rfoot -20.7616 2.8721
rtoes -17.8467
lfemur -16.3704 2.93695 -23.2276
ltibia 33.2761
lfoot -21.0436 5.34079
ltoes -32.1983
1676
root 16.8829 16.0828 5.31246 732.598 -4.01532 359.942
lowerback -1.26851 3.71669 -3.59888
upperback -8.65114 4.66485 -3.22446
thorax -8.39976 2.43227 -1.68343
lowerneck 20.6762 -9.58884 -31.7732
upperneck 0.601486 -21.1817 38.9441
head 5.19392 -12.8091 19.5871
rclavicle 4.05521e-014 -1.51076e-014
rhumerus -34.6195 -8.5223 -86.1007
rradius 28.4465
rwrist 22.8298
rhand -7.9309 0.208393
rfingers 7.12502
rthumb 17.9753 -28.9809
lclavicle 4.05521e-014 -1.51076e-014
lhumerus -36.4806 -7.5698 74.9719
lradius 34.3843
lwrist 39.7242
lhand -20.2884 -12.6659
lfingers 7.12502
lthumb 6.06142 17.2274
rfemur -35.2929 3.18154 17.9966
rtibia 55.9292
rfoot -21.0608 3.02554
rtoes -18.0618
lfemur -16.3557 3.12681 -23.2837
ltibia 33.3607
lfoot -21.109 5.71898
ltoes -32.1082
